<?xml version="1.0" standalone="no"?>
<!DOCTYPE svg PUBLIC "-//W3C//DTD SVG 20010904//EN"
 "http://www.w3.org/TR/2001/REC-SVG-20010904/DTD/svg10.dtd">
<svg version="1.0" xmlns="http://www.w3.org/2000/svg"
 width="24.000000pt" height="24.000000pt" viewBox="0 0 24.000000 24.000000"
 preserveAspectRatio="xMidYMid meet">

<g transform="translate(0.000000,24.000000) scale(0.100000,-0.100000)"
fill="#000000" stroke="none">
<path d="M86 221 c-10 -11 -30 -21 -45 -23 -26 -3 -26 -3 -24 -86 1 -46 4 -90
7 -98 8 -20 184 -20 192 0 3 8 6 52 7 98 2 83 2 83 -24 86 -15 2 -35 12 -45
23 -22 24 -46 24 -68 0z m59 -11 c4 -6 -7 -10 -25 -10 -18 0 -29 4 -25 10 3 6
15 10 25 10 10 0 22 -4 25 -10z m65 -72 c0 -24 -3 -60 -6 -81 l-7 -37 -77 0
-77 0 -7 37 c-3 21 -6 57 -6 81 l0 42 90 0 90 0 0 -42z"/>
<path d="M92 148 c-20 -20 -14 -36 18 -53 35 -18 31 -38 -6 -29 -14 4 -24 2
-24 -5 0 -17 48 -25 65 -11 23 19 18 39 -17 60 -24 15 -28 21 -16 25 8 3 20 5
26 3 5 -2 11 2 11 7 2 15 -42 18 -57 3z"/>
</g>
</svg>
